<?xml version="1.0" encoding="utf-8"?>
<!-- Generator: Adobe Illustrator 19.2.1, SVG Export Plug-In . SVG Version: 6.00 Build 0)  -->
<svg version="1.1" id="Capa_1" xmlns="http://www.w3.org/2000/svg" xmlns:xlink="http://www.w3.org/1999/xlink" x="0px" y="0px"
	 viewBox="0 0 512 512" style="enable-background:new 0 0 512 512;" xml:space="preserve">
<style type="text/css">
	.st0{fill:#FFFFFF;}
</style>
<path class="st0" d="M509,438.9c-8.2-12.9-16.4-25.8-24.5-38.6c-19.7-30.9-39.3-61.9-59-92.8c-23.8-37.4-47.6-74.9-71.3-112.3
	c-20.6-32.4-41.1-64.8-61.7-97.2c-10-15.8-19.7-31.9-30.1-47.4c-0.2-0.2-0.3-0.5-0.4-0.7c-0.2-0.4-0.5-0.7-0.8-1
	c-1.2-1.6-3.1-2.7-5.7-2.7c-2.6,0-4.4,1.1-5.7,2.6c-0.3,0.3-0.6,0.7-0.8,1.1c-8.2,12.9-16.3,25.8-24.5,38.7
	c-19.6,31-39.2,62-58.8,93c-23.6,37.4-47.2,74.7-70.9,112.1c-20.5,32.4-41,64.8-61.5,97.3c-9.9,15.7-20.7,31.1-29.8,47.2
	c-0.1,0.2-0.3,0.5-0.4,0.7c-1.7,2.6-1.2,5.7,0.3,8c1.1,1.9,3.2,3.3,6.1,3.3c16.4,0,32.7,0,49.1,0c39.3,0,78.5,0,117.8,0
	c47.5,0,95,0,142.5,0c41,0,82.1,0,123.1,0c19.8,0,39.8,0.8,59.7,0c0.3,0,0.6,0,0.9,0C508,450.2,512.1,443.8,509,438.9z M154.8,226.9
	c22.3,0,44.7,0,67,0c37.6,0,75.2,0,112.8,0c7.3,0,14.6,0,21.9,0c12.1,19,24.1,38,36.2,57c-29.7,0-59.4,0-89.1,0
	c-53.8,0-107.7,0-161.5,0c-7.8,0-15.6,0-23.4,0C130.8,264.9,142.8,245.9,154.8,226.9z M255.9,138.6c9.1-9.1,18.1-18.1,27.2-27.2
	c1.6,2.5,3.2,5,4.8,7.5c-6.6,6.6-13.1,13.1-19.7,19.7C264.1,138.6,260,138.6,255.9,138.6z M222.2,138.6
	c15.4-15.4,30.7-30.7,46.1-46.1c0.6-0.6,1.2-1.2,1.7-1.7c1.1,1.8,2.3,3.6,3.4,5.4c0.5,0.7,0.9,1.5,1.4,2.2
	c-13.4,13.4-26.8,26.8-40.2,40.2C230.5,138.6,226.4,138.6,222.2,138.6z M296.2,131.8c1.4,2.2,2.8,4.5,4.3,6.7c-3.7,0-7.3,0-11,0
	C291.7,136.3,293.9,134.1,296.2,131.8z M255.6,68c2.1,3.2,4.1,6.5,6.2,9.7c-11.5,11.5-23,23-34.6,34.6c1.5-2.3,2.9-4.6,4.4-6.9
	C239.5,92.9,247.9,80.6,255.6,68z M170.1,202.7c10.3-16.4,20.7-32.7,31-49.1c1,0,2.1,0,3.1,0c0.1,0,0.3,0,0.4,0
	c10.8,0,21.6,0,32.3,0c0.7,0.1,1.3,0.1,2,0c10.8,0,21.6,0,32.4,0c0.1,0,0.3,0,0.4,0c8.4,0,16.8,0,25.2,0c4.3,0,8.5,0,12.8,0
	c7.5,11.8,15,23.6,22.5,35.4c4.9,7.7,9.7,15.3,14.6,23c-19.2,0-38.3,0-57.5,0c-37.6,0-75.2,0-112.8,0c-4.1,0-8.3,0-12.4,0
	C166.2,208.8,168.2,205.8,170.1,202.7z M99.3,314.7c3.3-5.3,6.7-10.5,10-15.8c32.7,0,65.4,0,98.1,0c53.8,0,107.7,0,161.5,0
	c11.1,0,22.3,0,33.4,0c0.5,0.8,1,1.6,1.5,2.3c11.6,18.2,23.1,36.4,34.7,54.7c-8.5,0-16.9,0-25.4,0c-31.3,0-62.5,0-93.8,0
	c-37.8,0-75.6,0-113.4,0c-32.7,0-65.4,0-98,0c-11.4,0-23-0.3-34.5-0.3C82,342,90.7,328.4,99.3,314.7z M453.4,435.2
	c-39.3,0-78.5,0-117.8,0c-47.5,0-95,0-142.5,0c-41,0-82.1,0-123.1,0c-13.5,0-27,0-40.4,0c-2.1,0-4.2-0.1-6.4-0.2
	c5.8-9.1,11.5-18.2,17.3-27.3c7.8-12.3,15.5-24.6,23.3-36.8c11.6,0,23.3,0,34.9,0c31.3,0,62.5,0,93.8,0c37.8,0,75.6,0,113.4,0
	c32.7,0,65.4,0,98,0c14.7,0,29.5,0.6,44.2,0.1c5.8,9.1,11.6,18.3,17.4,27.4c6.8,10.8,13.7,21.5,20.5,32.3c0.9,1.5,1.8,3,2.7,4.5
	C477,435.2,465.2,435.2,453.4,435.2z"/>
</svg>
