<?xml version="1.0" encoding="utf-8"?>
<!-- Generator: Adobe Illustrator 19.2.1, SVG Export Plug-In . SVG Version: 6.00 Build 0)  -->
<svg version="1.1" id="Capa_1" xmlns="http://www.w3.org/2000/svg" xmlns:xlink="http://www.w3.org/1999/xlink" x="0px" y="0px"
	 viewBox="0 0 512 512" style="enable-background:new 0 0 512 512;" xml:space="preserve">
<style type="text/css">
	.st0{fill:#FFFFFF;}
</style>
<path class="st0" d="M509.5,452.4c-21.9-31-43.7-61.9-65.6-92.9c-34.6-49.1-69.3-98.1-103.9-147.2c-7.7-10.9-15.3-21.7-23-32.6
	c0-40.6,0-81.2,0-121.7c0-5.9,0-11.8,0-17.7c0-4.1-3.4-7.5-7.5-7.5c-40.3,0-80.5,0-120.8,0c-5.8,0-11.5,0-17.3,0
	c-2.3,0-4,0.9-5.2,2.2c-1.4,1.2-2.3,3-2.3,5.3c0,27.2,0,54.4,0,81.6c0,4.1,3.4,7.5,7.5,7.5c40.3,0,80.5,0,120.8,0c3.3,0,6.5,0,9.8,0
	c0,4.8,0,9.7,0,14.5c0,11.6-0.7,23.5-0.1,35.1c-15.1,14.9-30.3,29.9-45.4,44.8C230.9,248.9,205.5,274,180,299c-4,4-8.1,8-12.1,11.9
	c-11.3-12.3-22.6-24.7-33.9-37c-3.5-3.8-9.2-2.3-11.8,1.5c-13.4,19.9-26.8,39.7-40.2,59.6c-21.5,31.8-43,63.7-64.5,95.5
	c-4.9,7.3-9.8,14.6-14.8,21.9c-3.2,4.8,1.1,11.3,6.5,11.3c16.4,0,32.9,0,49.3,0c39.3,0,78.6,0,117.9,0c47.5,0,95,0,142.5,0
	c41.1,0,82.1,0,123.2,0c19.9,0,40,0.8,60,0c0.3,0,0.6,0,0.9,0C508.3,463.7,512.8,457.2,509.5,452.4z M188.7,114.4
	c-3.3,0-6.5,0-9.8,0c0-22.2,0-44.4,0-66.6c37.8,0,75.5,0,113.3,0c3.3,0,6.5,0,9.8,0c0,22.2,0,44.4,0,66.6
	C264.2,114.4,226.4,114.4,188.7,114.4z M453.7,448.7c-39.3,0-78.6,0-117.9,0c-47.5,0-95,0-142.5,0c-41.1,0-82.1,0-123.2,0
	c-13.6,0-27.2,0-40.7,0c-1.9,0-3.9-0.1-5.9-0.1c10.8-16.1,21.7-32.1,32.5-48.2c21.5-31.8,43-63.7,64.5-95.5c3.1-4.5,6.1-9,9.2-13.6
	c10.9,11.9,21.8,23.8,32.7,35.8c2.7,3,7.8,2.7,10.6,0c15.9-15.7,31.9-31.4,47.8-47.1c25.4-25.1,50.8-50.1,76.3-75.2
	c3.7-3.7,7.4-7.3,11.1-11c1.4,1.8,2.8,3.4,3.9,4.9c20.5,29,41,58.1,61.5,87.1c26,36.9,52.1,73.7,78.1,110.6
	c9.8,13.9,19.6,27.8,29.4,41.7c2.4,3.4,4.8,7.1,7.2,10.6C476.7,448.7,465.2,448.7,453.7,448.7z"/>
</svg>
