<?xml version="1.0" encoding="utf-8"?>
<!-- Generator: Adobe Illustrator 21.1.0, SVG Export Plug-In . SVG Version: 6.00 Build 0)  -->
<svg version="1.1" id="Camada_1" xmlns="http://www.w3.org/2000/svg" xmlns:xlink="http://www.w3.org/1999/xlink" x="0px" y="0px"
	 viewBox="0 0 1111.9 245.3" style="enable-background:new 0 0 1111.9 245.3;" xml:space="preserve">
<style type="text/css">
	.st0{fill:#293D50;}
	.st1{fill:#C0CCDA;}
	.st2{fill:#FFE380;}
	.st3{fill:#7E98B4;}
	.st4{fill:#FFCF0B;}
	.st5{fill:#486685;}
	.st6{fill:#FFC100;}
	.st7{fill:#F4AE00;}
	.st8{fill:none;}
	.st9{fill:#FFFFFF;stroke:#000000;stroke-miterlimit:10;}
	.st10{font-family:'MicrosoftYaHeiUI';}
	.st11{font-size:37px;}
</style>
<title>logo</title>
<path class="st0" d="M342.9,108.1h55.8v22h-55.8v48.2h67.7v22H319V44.8h91.6v21.8h-67.7V108.1L342.9,108.1z"/>
<path class="st0" d="M495,147.5c0,21.2-9.5,33.5-17.3,40.2c-9.5,8.2-22.6,12.6-37.1,12.6c-3.2,0-6.5-0.2-9.7-0.6v-24.9
	c3.2,0.8,6.4,1.3,9.7,1.3c8.9,0,16.5-2.5,21.8-6.9c5.6-4.8,8.4-12.1,8.4-21.6V44.8h24.1v102.7H495L495,147.5z"/>
<path class="st0" d="M549.1,108.1h55.8v22h-55.8v48.2h67.7v22h-91.6V44.8h91.6v21.8h-67.7V108.1z"/>
<path class="st0" d="M750,187.5c-3.9,2.6-8.1,4.8-12.4,6.7c-9.4,4-19.6,6.1-29.8,6.1c-20.3,0-39.8-8.3-53.9-22.9
	c-7.1-7.1-12.7-15.5-16.5-24.7c-4-9.6-6-19.8-6-30.2c0-10.4,2.1-20.7,6-30.4c3.9-9.2,9.5-17.6,16.5-24.7
	c14.3-14.4,33.6-22.5,53.9-22.6c10.3-0.1,20.4,2,29.8,6.1c1,0.4,2.3,1,3.3,1.5v28.7c-9.3-7.7-21-11.9-33.1-11.9
	c-14-0.1-27.4,5.6-37.1,15.7c-20.5,20.9-20.5,54.5,0,75.4c19.9,20.5,52.6,21,73.1,1.1c0.4-0.4,0.8-0.7,1.1-1.1
	c1.8-1.8,3.5-3.8,5.1-5.9L750,187.5L750,187.5L750,187.5z"/>
<path class="st0" d="M872.3,66.6h-42v133.6h-24.1V66.6h-42V44.8h108.1V66.6z"/>
<path class="st0" d="M319,229.9v-14.1h8.8v2.9h-5.2v2.5h4v2.9h-4v2.9h5.5v2.9L319,229.9L319,229.9z"/>
<path class="st0" d="M342.6,222.2c0-0.6-0.1-0.9-0.6-0.9c-0.8,0-1.5,0.3-2.1,0.7v7.9h-3.5v-7.7c0-0.7-0.2-0.9-0.6-0.9
	c-0.8,0-1.6,0.4-2.2,0.9v7.7h-3.5v-11h3.5v0.8c0.8-0.6,1.8-1,2.8-1.1c1.1-0.1,2.1,0.3,2.8,1.1c0.9-0.6,1.9-0.9,3-1.1
	c3,0,3.9,1.5,3.9,3.3v8h-3.5L342.6,222.2L342.6,222.2L342.6,222.2z"/>
<path class="st0" d="M352.3,229.5v4.4h-3.5v-14.8h3.5v0.8c0.7-0.6,1.6-1,2.5-1.1c3.1,0,4.5,3.1,4.5,5.4c0,2.5-0.8,6.2-5,6.2
	C353.6,230.3,352.9,230,352.3,229.5z M352.3,222.3v2.4c0,1.2,0.1,3,1.9,3c1.6,0,1.5-2.4,1.5-3.4s0-2.9-1.5-2.9
	C353.5,221.3,352.7,221.7,352.3,222.3z"/>
<path class="st0" d="M365.6,221.8c-0.3,0-0.6,0.1-0.9,0.3v7.8h-3.5V219h3.5v0.8c0.4-0.5,1-0.9,1.6-1.1c0.4,0,0.9,0.1,1.3,0.3
	l-0.5,3.2C366.6,222,366.1,221.8,365.6,221.8z"/>
<path class="st0" d="M371.6,224.8v0.4c0,1,0.5,2.5,1.8,2.5c1.2,0,2.3-0.4,3.3-1l1,2c-1.3,1-2.9,1.5-4.5,1.6c-3.7,0-5.2-3.1-5.2-6.1
	c0-3.1,2.4-5.6,5.5-5.6c0.1,0,0.1,0,0.2,0c2.5,0,4.5,1.8,4.7,4.3v1.8h-6.8V224.8L371.6,224.8z M373.5,220.8
	c-0.9,0.1-1.7,0.9-1.7,1.9h3.4C375.3,221.7,374.5,220.9,373.5,220.8C373.5,220.8,373.5,220.8,373.5,220.8z"/>
<path class="st0" d="M379.8,228.7l1.3-2.2c0.9,0.5,1.9,0.9,2.9,1.1c0.8,0,1.3-0.3,1.3-0.8c-0.1-0.4-0.5-0.8-0.9-0.9
	c-2.1-1-5-1.6-4.9-4.1c0.1-1.6,1.5-3.3,4.7-3.3c1.6,0,3.2,0.7,4.3,1.9l-1.8,1.6c-0.7-0.5-1.6-0.8-2.5-0.9c-0.5-0.1-1,0.1-1.2,0.6
	c0.1,0.4,0.5,0.7,0.9,0.8c2.3,1,5.1,1.7,4.9,4.4c-0.1,1.3-1,2.4-2.2,2.8c-0.8,0.3-1.7,0.5-2.6,0.5
	C382.5,230.1,381,229.6,379.8,228.7z"/>
<path class="st0" d="M398.2,230.3c-1.1,0.1-2-0.7-2.1-1.8c0,0,0,0,0,0c-0.5,1.1-1.7,1.9-3,1.8c-2.4,0-3.7-1.1-3.7-3.3
	c0.1-0.9,0.4-1.7,0.9-2.4l5.3-2v-0.5c-0.2-0.6-0.7-1-1.3-0.9c-1,0-2.1,0.4-2.9,1l-1.2-1.8c1.2-1.1,2.8-1.7,4.5-1.8
	c2.3,0,4.2,1,4.2,3.3v5.8c0,0.2,0,0.6,0.3,0.6c0.1,0,0.2,0,0.3-0.1l0.5,1.5C399.5,230.1,398.9,230.3,398.2,230.3z M393,225.8
	c-0.1,0.4-0.2,0.7-0.2,1.1c0,0.5,0.4,0.8,0.9,0.8c1.1,0,2-1,2-2.1c0-0.1,0-0.1,0-0.2v-0.6L393,225.8z"/>
<path class="st0" d="M408.1,233.6l-0.9-2.3c0.6-0.2,1.5-0.7,1.5-1.4v-14h3.6V230C412.3,232.2,410.1,233.1,408.1,233.6z"/>
<path class="st0" d="M421.9,229c-1,0.7-2.2,1.2-3.4,1.3c-2.7,0-3.8-1.2-3.8-3.3v-7.9h3.5v7.9c0,0.5,0.2,0.7,0.8,0.7
	c0.8-0.1,1.5-0.5,2.2-0.9v-7.7h3.5v8.7c0,0.4,0.3,0.7,0.6,0.9l-1.1,1.7C423.3,230.2,422.5,229.7,421.9,229z M417.9,217.8
	c1.8-0.9,3.4-2,5-3.2l-2.4-2.2c-1.2,1.3-2.5,2.5-3.9,3.5L417.9,217.8z"/>
<path class="st0" d="M433.8,222c0.1-0.3-0.1-0.6-0.4-0.7c-0.1,0-0.1,0-0.2,0c-0.8,0-1.7,0.3-2.3,0.9v7.7h-3.5V219h3.5v0.8
	c0.8-0.6,1.8-1,2.8-1.1c3.1,0,3.7,1.7,3.7,3.4v7.9h-3.5v-8L433.8,222L433.8,222z"/>
<path class="st0" d="M439.3,216.1c0.1-1.1,1.1-2,2.2-1.9c1.1-0.1,2,0.7,2.1,1.7c0,0,0,0,0,0.1c-0.1,1.1-1.1,2-2.2,1.9
	C440.3,218,439.4,217.2,439.3,216.1C439.3,216.1,439.3,216.1,439.3,216.1z M439.7,219h3.5v10.9h-3.5V219z"/>
<path class="st0" d="M444.9,224.5c0-2.6,1.6-5.8,5.3-5.8s5.3,3.2,5.3,5.8s-1.6,5.8-5.3,5.8S444.9,227.1,444.9,224.5z M448.4,224.5
	c0,1.9,0.7,3.1,1.8,3.1s1.8-1.2,1.8-3.1s-0.7-3.1-1.8-3.1S448.4,222.5,448.4,224.5z"/>
<path class="st0" d="M461.9,221.8c-0.3,0-0.6,0.1-0.9,0.3v7.8h-3.5V219h3.5v0.8c0.4-0.5,1-0.9,1.6-1.1c0.4,0,0.9,0.1,1.3,0.3
	l-0.5,3.2C462.9,222,462.4,221.8,461.9,221.8z"/>
<path class="st0" d="M482.1,230.3h-0.8c-1,0-1.8-0.6-2.1-1.5c-0.6,0.9-1.6,1.5-2.7,1.5c-3.2,0-4.9-2.8-4.9-5.5
	c0-3.2,1.2-6.1,5.2-6.1c0.6,0,1.1,0.1,1.7,0.3v-4.6h3.5v13c0,0.4,0,1,0.7,1L482.1,230.3z M478.7,221.6c-0.5-0.2-1.1-0.3-1.6-0.3
	c-1.8,0-1.7,2.1-1.7,3.3c0,1,0.1,3,1.6,3s1.8-1.9,1.8-2.9L478.7,221.6L478.7,221.6z"/>
<path class="st0" d="M492.7,230.3c-1.1,0.1-2-0.7-2.1-1.8c0,0,0,0,0,0c-0.5,1.1-1.7,1.9-3,1.8c-2.4,0-3.7-1.1-3.7-3.3
	c0.1-0.9,0.4-1.7,0.9-2.4l5.3-2v-0.5c-0.2-0.6-0.7-1-1.3-0.9c-1,0-2.1,0.4-2.9,1l-1.2-1.8c1.2-1.1,2.8-1.7,4.5-1.8
	c2.3,0,4.2,1,4.2,3.3v5.8c0,0.2,0,0.6,0.3,0.6c0.1,0,0.2,0,0.3-0.1l0.5,1.5C494,230.1,493.4,230.3,492.7,230.3z M487.5,225.8
	c-0.1,0.4-0.2,0.7-0.2,1.1c0,0.5,0.4,0.8,0.9,0.8c1.1,0,2-1,2-2.1c0-0.1,0-0.1,0-0.2v-0.6L487.5,225.8z"/>
<path class="st0" d="M503.3,229.9v-14.1h8.8v2.9h-5.2v2.5h4v2.9h-4v2.9h5.5v2.9L503.3,229.9L503.3,229.9z"/>
<path class="st0" d="M513.9,228.7l1.3-2.2c0.9,0.5,1.9,0.9,2.9,1.1c0.8,0,1.3-0.3,1.3-0.8c-0.1-0.4-0.5-0.8-0.9-0.9
	c-2.1-1-5-1.6-4.9-4.1c0.1-1.6,1.5-3.3,4.7-3.3c1.6,0,3.2,0.7,4.3,1.9l-1.8,1.6c-0.7-0.5-1.6-0.8-2.5-0.9c-0.5-0.1-1,0.1-1.2,0.6
	c0.1,0.4,0.5,0.7,0.9,0.8c2.3,1,5.1,1.7,4.9,4.4c-0.1,1.3-1,2.4-2.2,2.8c-0.8,0.3-1.7,0.5-2.6,0.5
	C516.6,230.1,515.1,229.6,513.9,228.7z"/>
<path class="st0" d="M529,230.3c-3.4,0-5.3-2.9-5.3-5.7s1.9-5.9,5.4-5.9c1.4,0,2.7,0.5,3.7,1.4l-1.6,1.9c-0.6-0.4-1.4-0.6-2.1-0.6
	c-1.4,0-1.9,2.1-1.9,3.1s0.5,3.3,2,3.3c0.9-0.1,1.8-0.4,2.6-1l1.3,2.1C531.9,229.7,530.5,230.2,529,230.3z"/>
<path class="st0" d="M533.7,224.5c0-2.6,1.6-5.8,5.3-5.8s5.3,3.2,5.3,5.8s-1.6,5.8-5.3,5.8S533.7,227.1,533.7,224.5z M537.2,224.5
	c0,1.9,0.7,3.1,1.8,3.1s1.8-1.2,1.8-3.1s-0.7-3.1-1.8-3.1S537.2,222.5,537.2,224.5z"/>
<path class="st0" d="M546,225.2v-10.8h3.5v10.8c0,1.6,0.2,3.3,0.8,4.8h-3.4C546.3,229,546,227.7,546,225.2z"/>
<path class="st0" d="M559.9,230.3c-1.1,0.1-2-0.7-2.1-1.8c0,0,0,0,0,0c-0.5,1.1-1.7,1.9-3,1.8c-2.4,0-3.7-1.1-3.7-3.3
	c0.1-0.9,0.4-1.7,0.9-2.4l5.3-2v-0.5c-0.2-0.6-0.7-1-1.3-0.9c-1,0-2.1,0.4-2.9,1l-1.2-1.8c1.2-1.1,2.8-1.7,4.5-1.8
	c2.3,0,4.2,1,4.2,3.3v5.8c0,0.2,0,0.6,0.3,0.6c0.1,0,0.2,0,0.3-0.1l0.5,1.5C561.2,230.1,560.5,230.3,559.9,230.3z M554.6,225.8
	c-0.1,0.4-0.2,0.7-0.2,1.1c0,0.5,0.4,0.8,0.9,0.8c1.1,0,2-1,2-2.1c0-0.1,0-0.1,0-0.2v-0.6L554.6,225.8z"/>
<path class="st0" d="M580.2,230.3h-0.8c-1,0-1.8-0.6-2.1-1.5c-0.6,0.9-1.6,1.5-2.7,1.5c-3.2,0-4.9-2.8-4.9-5.5
	c0-3.2,1.2-6.1,5.2-6.1c0.6,0,1.1,0.1,1.7,0.3v-4.6h3.5v13c0,0.4,0,1,0.7,1L580.2,230.3z M576.8,221.6c-0.5-0.2-1.1-0.3-1.6-0.3
	c-1.8,0-1.7,2.1-1.7,3.3c0,1,0.1,3,1.6,3s1.8-1.9,1.8-2.9L576.8,221.6L576.8,221.6z"/>
<path class="st0" d="M585.7,224.8v0.4c0,1,0.5,2.5,1.8,2.5c1.2,0,2.3-0.4,3.3-1l1,2c-1.3,1-2.9,1.5-4.5,1.6c-3.7,0-5.2-3.1-5.2-6.1
	c0-3.1,2.4-5.6,5.5-5.6c0.1,0,0.1,0,0.2,0c2.5,0,4.5,1.8,4.7,4.3v1.8h-6.8V224.8L585.7,224.8z M587.7,220.8
	c-0.9,0.1-1.7,0.9-1.7,1.9h3.4C589.4,221.7,588.7,220.9,587.7,220.8z"/>
<path class="st0" d="M607.5,230.3c-4.6,0-6.4-3.7-6.4-7.4c0-3.5,2.2-7.4,6.5-7.4c1.5,0,2.9,0.3,4.2,1.1l-1.3,2.2
	c-0.9-0.4-1.8-0.5-2.8-0.5c-2.1,0-2.9,3.2-2.9,4.7c0,1.7,0.4,4.5,2.9,4.5c1,0,2-0.3,2.9-0.8l1.6,2.2
	C610.8,229.8,609.2,230.3,607.5,230.3z"/>
<path class="st0" d="M613,216.1c0.1-1.1,1.1-2,2.2-1.9c1.1-0.1,2,0.7,2.1,1.7c0,0,0,0,0,0.1c-0.1,1.1-1.1,2-2.2,1.9
	C614,218,613.1,217.2,613,216.1C613,216.1,613,216.1,613,216.1z M613.4,219h3.5v10.9h-3.5V219z"/>
<path class="st0" d="M622.1,224.8v0.4c0,1,0.5,2.5,1.8,2.5c1.2,0,2.3-0.4,3.3-1l1,2c-1.3,1-2.9,1.5-4.5,1.6c-3.7,0-5.2-3.1-5.2-6.1
	c0-3.1,2.4-5.6,5.5-5.6c0.1,0,0.1,0,0.2,0c2.5,0,4.5,1.8,4.7,4.3v1.8h-6.8V224.8L622.1,224.8z M619.3,215.9l1.1-0.6
	c1.2-0.8,2.3-1.7,3.4-2.6c1,1,2.2,1.9,3.4,2.6l1.1,0.6l-1.6,2c-1-0.6-2-1.3-2.9-2.1c-0.9,0.8-1.9,1.5-2.9,2.1L619.3,215.9z
	 M624.1,220.8c-0.9,0.1-1.7,0.9-1.7,1.9h3.4C625.8,221.7,625.1,220.9,624.1,220.8z"/>
<path class="st0" d="M637.2,222c0.1-0.3-0.1-0.6-0.4-0.7c-0.1,0-0.1,0-0.2,0c-0.8,0-1.7,0.3-2.3,0.9v7.7h-3.5V219h3.5v0.8
	c0.8-0.6,1.8-1,2.8-1.1c3.1,0,3.7,1.7,3.7,3.4v7.9h-3.5v-8L637.2,222L637.2,222z"/>
<path class="st0" d="M647.8,230.3c-3.4,0-5.3-2.9-5.3-5.7s1.9-5.9,5.4-5.9c1.4,0,2.7,0.5,3.7,1.4L650,222c-0.6-0.4-1.4-0.6-2.1-0.6
	c-1.4,0-1.9,2.1-1.9,3.1s0.5,3.3,2,3.3c0.9-0.1,1.8-0.4,2.6-1l1.3,2.1C650.7,229.7,649.3,230.2,647.8,230.3z"/>
<path class="st0" d="M652.7,216.1c0.1-1.1,1.1-2,2.2-1.9c1.1-0.1,2,0.7,2.1,1.7c0,0,0,0,0,0.1c-0.1,1.1-1.1,2-2.2,1.9
	C653.7,218,652.8,217.2,652.7,216.1C652.7,216.1,652.7,216.1,652.7,216.1z M653.1,219h3.5v10.9h-3.5V219z"/>
<path class="st0" d="M666.9,230.3c-1.1,0.1-2-0.7-2.1-1.8c0,0,0,0,0,0c-0.5,1.1-1.7,1.9-3,1.8c-2.4,0-3.7-1.1-3.7-3.3
	c0.1-0.9,0.4-1.7,0.9-2.4l5.3-2v-0.5c-0.1-0.6-0.7-1-1.3-0.9c-1,0-2.1,0.4-2.9,1l-1.2-1.8c1.2-1.1,2.8-1.7,4.5-1.8
	c2.3,0,4.2,1,4.2,3.3v5.8c0,0.2,0,0.6,0.3,0.6c0.1,0,0.2,0,0.3-0.1l0.5,1.5C668.2,230.1,667.5,230.3,666.9,230.3z M661.6,225.8
	c-0.1,0.4-0.2,0.7-0.2,1.1c0,0.5,0.4,0.8,0.9,0.8c1.1,0,2-1,2-2.1c0-0.1,0-0.1,0-0.2v-0.6L661.6,225.8z"/>
<path class="st0" d="M669.9,228.7l1.3-2.2c0.9,0.5,1.9,0.9,2.9,1.1c0.8,0,1.3-0.3,1.3-0.8c-0.1-0.4-0.5-0.8-0.9-0.9
	c-2.1-1-5-1.6-4.9-4.1c0.1-1.6,1.5-3.3,4.7-3.3c1.6,0,3.2,0.7,4.3,1.9l-1.8,1.6c-0.7-0.5-1.6-0.8-2.5-0.9c-0.5-0.1-1,0.1-1.2,0.6
	c0.1,0.4,0.5,0.7,0.9,0.8c2.3,1,5.1,1.7,4.9,4.4c-0.1,1.3-1,2.4-2.2,2.8c-0.8,0.3-1.7,0.5-2.6,0.5
	C672.6,230.1,671.1,229.6,669.9,228.7z"/>
<path class="st0" d="M690.5,224.8v0.4c0,1,0.5,2.5,1.8,2.5c1.2,0,2.3-0.4,3.3-1l1,2c-1.3,1-2.9,1.5-4.5,1.6c-3.7,0-5.2-3.1-5.2-6.1
	c0-3.1,2.4-5.6,5.5-5.6c0.1,0,0.1,0,0.2,0c2.5,0,4.5,1.8,4.7,4.3v1.8h-6.8V224.8L690.5,224.8z M692.4,220.8
	c-0.9,0.1-1.7,0.9-1.7,1.9h3.4C694.1,221.7,693.4,220.9,692.4,220.8z"/>
<path class="st0" d="M711.7,218.8v11.1h-3.6v-11.1h-2.9v-2.9h9.3v2.9H711.7z"/>
<path class="st0" d="M717.4,224.8v0.4c0,1,0.5,2.5,1.8,2.5c1.2,0,2.3-0.4,3.3-1l1,2c-1.3,1-2.9,1.5-4.5,1.6c-3.7,0-5.2-3.1-5.2-6.1
	c0-3.1,2.4-5.6,5.5-5.6c0.1,0,0.1,0,0.2,0c2.5,0,4.5,1.8,4.7,4.3v1.8h-6.8V224.8L717.4,224.8z M719.3,220.8
	c-0.9,0.1-1.7,0.9-1.7,1.9h3.4C721,221.7,720.3,220.9,719.3,220.8L719.3,220.8z"/>
<path class="st0" d="M730.5,230.3c-3.4,0-5.3-2.9-5.3-5.7s1.9-5.9,5.4-5.9c1.4,0,2.7,0.5,3.7,1.4l-1.6,1.9c-0.6-0.4-1.4-0.6-2.1-0.6
	c-1.4,0-1.9,2.1-1.9,3.1s0.5,3.3,2,3.3c0.9-0.1,1.8-0.4,2.6-1l1.3,2.1C733.4,229.7,732,230.2,730.5,230.3z"/>
<path class="st0" d="M742.4,222c0.1-0.3-0.1-0.6-0.4-0.7c-0.1,0-0.1,0-0.2,0c-0.8,0-1.7,0.3-2.3,0.9v7.7H736V219h3.5v0.8
	c0.8-0.6,1.8-1,2.8-1.1c3.1,0,3.7,1.7,3.7,3.4v7.9h-3.5L742.4,222L742.4,222L742.4,222z"/>
<path class="st0" d="M747.8,224.5c0-2.6,1.6-5.8,5.3-5.8s5.3,3.2,5.3,5.8s-1.6,5.8-5.3,5.8S747.8,227.1,747.8,224.5z M751.3,224.5
	c0,1.9,0.7,3.1,1.8,3.1s1.8-1.2,1.8-3.1s-0.7-3.1-1.8-3.1S751.3,222.5,751.3,224.5z"/>
<path class="st0" d="M760,225.2v-10.8h3.5v10.8c0,1.6,0.2,3.3,0.8,4.8h-3.4C760.2,228.5,759.9,226.8,760,225.2z"/>
<path class="st0" d="M765.3,224.5c0-2.6,1.6-5.8,5.3-5.8s5.3,3.2,5.3,5.8s-1.6,5.8-5.3,5.8S765.3,227.1,765.3,224.5z M768.8,224.5
	c0,1.9,0.7,3.1,1.8,3.1s1.8-1.2,1.8-3.1s-0.7-3.1-1.8-3.1S768.8,222.5,768.8,224.5z"/>
<path class="st0" d="M786.5,222.9c-0.1,1.9-1.5,3.4-3.4,3.5c-0.5,0.1-1.9,0.2-1.9,0.8s1.5,0.4,2,0.4h0.8c1.8,0,3.4,0.6,3.4,2.5
	c0,2.8-3,4.3-5.7,4.3c-2,0-4.6-0.7-4.6-3.1c0-1,1.2-1.9,2.1-2.2c-0.7-0.2-1.3-0.8-1.4-1.5c0-0.8,1-1.4,1.6-1.7c-1.2-0.6-1.9-1.7-2-3
	c0-2.5,1.9-4.2,4.8-4.2c0.7,0,1.4,0.1,2.1,0.3h3v2.3l-1.1-0.3C786,221.1,786.5,221.9,786.5,222.9z M781.4,229.9
	c-0.5,0.2-0.9,0.6-1.1,1.1c0,0.6,0.5,1,1.1,1c0.1,0,0.2,0,0.2,0c1.3,0,2.3-0.7,2.3-1.7c0-0.4-0.9-0.4-1.3-0.4H781.4z M780.7,222.6
	c0,0.8,0.2,1.6,1.2,1.6c0.7-0.1,1.2-0.7,1.1-1.4c0,0,0-0.1,0-0.1c0.2-0.7-0.3-1.4-1-1.6c-0.1,0-0.1,0-0.2,0
	C781.1,221.2,780.6,221.8,780.7,222.6C780.7,222.6,780.7,222.6,780.7,222.6z"/>
<path class="st0" d="M788.3,216.1c0.1-1.1,1.1-2,2.2-1.9c1.1-0.1,2,0.7,2.1,1.7c0,0,0,0,0,0.1c-0.1,1.1-1.1,2-2.2,1.9
	C789.3,218,788.4,217.2,788.3,216.1C788.3,216.1,788.3,216.1,788.3,216.1z M788.7,219h3.5v10.9h-3.5V219z"/>
<path class="st0" d="M802.5,230.3c-1.1,0.1-2-0.7-2.1-1.8c0,0,0,0,0,0c-0.5,1.1-1.7,1.9-3,1.8c-2.4,0-3.7-1.1-3.7-3.3
	c0.1-0.9,0.4-1.7,0.9-2.4l5.3-2v-0.5c-0.1-0.6-0.7-1-1.3-0.9c-1,0-2.1,0.4-2.9,1l-1.2-1.8c1.2-1.1,2.8-1.7,4.5-1.8
	c2.3,0,4.2,1,4.2,3.3v5.8c0,0.2,0,0.6,0.3,0.6c0.1,0,0.2,0,0.3-0.1l0.5,1.5C803.8,230.1,803.2,230.3,802.5,230.3z M797.2,225.8
	c-0.1,0.4-0.2,0.7-0.2,1.1c0,0.5,0.4,0.8,0.9,0.8c1.1,0,2-1,2-2.1c0-0.1,0-0.1,0-0.2v-0.6L797.2,225.8z"/>
<path class="st0" d="M813,213.2h3.1v17.1H813V213.2z"/>
<path class="st0" d="M831.2,230.3c-4.2,0-5.5-3.1-5.5-5.9v-8.5h3.6v8.5c0,2.1,0.6,3.1,1.9,3.1s1.9-0.9,1.9-3.1v-8.5h3.6v8.5
	C836.7,227.2,835.4,230.3,831.2,230.3z"/>
<path class="st0" d="M842.8,218.7v2.5h3.6v2.9h-3.6v5.8h-3.6v-14.1h8.2v2.9H842.8L842.8,218.7z"/>
<path class="st0" d="M856.8,229.9l-3.9-4.9v4.9h-3.6v-14.1h4c3.3,0,6.3,1.1,6.3,4.6c0,1.9-1.2,3.5-3,4.1l3.2,3.8v1.5h-3V229.9z
	 M853.8,218.7h-0.9v3.8c0.3,0.1,0.6,0.2,0.9,0.2c1.1,0.1,2-0.8,2.1-1.9c0-0.1,0-0.2,0-0.3C855.9,219.2,855.2,218.7,853.8,218.7z"/>
<path class="st0" d="M869,229.9l-4.1-8.3c0.1,0.6,0.2,1.2,0.2,1.8v6.5h-3.6v-14.1h3.9l2.6,5.5c0.3,0.6,0.5,1.3,0.7,1.9v-7.5h3.6
	v14.1H869V229.9z"/>
<polygon class="st0" points="206.6,93 206.6,186.1 275.5,186.1 "/>
<rect y="201.4" class="st0" width="275.9" height="43.9"/>
<polygon class="st1" points="137.9,0 137.9,93 206.8,93 "/>
<polygon class="st2" points="137.9,0 137.9,93 69.1,93 "/>
<polygon class="st3" points="137.9,186.1 137.9,93 206.8,93 "/>
<polygon class="st4" points="137.9,186.1 137.9,93 69.1,93 "/>
<polygon class="st5" points="206.8,93 206.8,186.1 137.9,186.1 "/>
<polygon class="st6" points="69.1,93 69.1,186.1 137.9,186.1 "/>
<polygon class="st7" points="69.1,93 69.1,186.1 0.2,186.1 "/>
<rect x="909.9" y="91.1" class="st8" width="159.6" height="142.4"/>
<text transform="matrix(1 0 0 1 909.9258 120.7036)"><tspan x="0" y="0" class="st9 st10 st11">Soluções    </tspan><tspan x="0" y="44.4" class="st9 st10 st11">WEB</tspan></text>
</svg>
